<svg width="50" height="50" viewBox="0 0 50 51" fill="none" xmlns="http://www.w3.org/2000/svg">
    <rect width="50" height="50" rx="7" fill="#FE8F8F"/>
    <path d="M18.9033 37.5811C17.9183 37.5811 17.2044 37.332 16.7617 36.834C16.4186 36.4577 16.2471 35.9486 16.2471 35.3066C16.2471 34.7975 16.3245 34.2109 16.4795 33.5469C16.6344 32.8717 16.8613 32.0029 17.1602 30.9404C17.459 29.8669 17.6803 28.9814 17.8242 28.2842C17.9792 27.5869 18.0566 26.945 18.0566 26.3584C18.0566 25.639 17.9072 25.0801 17.6084 24.6816C17.2764 24.2611 16.7451 24.0508 16.0146 24.0508C15.583 24.0508 15.2067 24.0951 14.8857 24.1836L12.1631 37H7.28223L12.1963 13.874C10.6689 14.516 9.49577 15.4678 8.67676 16.7295C7.85775 17.9912 7.44824 19.5241 7.44824 21.3281C7.44824 22.0365 7.52572 22.6009 7.68066 23.0215C7.72493 23.1654 7.78027 23.2926 7.84668 23.4033C7.89095 23.4808 7.91309 23.5583 7.91309 23.6357C6.68457 23.6357 5.78809 23.3923 5.22363 22.9053C4.59277 22.374 4.27734 21.5163 4.27734 20.332C4.27734 19.5905 4.43783 18.86 4.75879 18.1406C5.07975 17.4102 5.53353 16.7074 6.12012 16.0322C6.6735 15.3903 7.33203 14.7926 8.0957 14.2393C8.87044 13.6748 9.70605 13.1878 10.6025 12.7783C12.484 11.9261 14.3545 11.5 16.2139 11.5C16.723 11.5 17.1768 11.5221 17.5752 11.5664L15.3672 21.9756L16.3301 20.6973C16.9388 19.8561 17.7523 18.766 18.7705 17.4268L20.0322 15.7168L21.2109 14.1396L22.1738 12.8447L22.8379 11.9814L23.0869 11.666H26.6562L17.21 22.5566C17.4977 22.5566 17.7025 22.5511 17.8242 22.54C17.946 22.529 18.1341 22.5234 18.3887 22.5234C19.9382 22.5234 21.056 22.8665 21.7422 23.5527C22.3177 24.1393 22.6055 25.0081 22.6055 26.1592C22.6055 26.79 22.5335 27.4652 22.3896 28.1846C22.2458 28.8929 22.041 29.734 21.7754 30.708C21.4766 31.7926 21.2607 32.6227 21.1279 33.1982C21.0062 33.7627 20.9453 34.2829 20.9453 34.7588C20.9453 35.29 21.0615 35.7604 21.2939 36.1699C21.5374 36.5684 21.8639 36.8451 22.2734 37C20.9121 37.3874 19.7887 37.5811 18.9033 37.5811ZM32.8486 37.6143C31.764 37.6143 30.7845 37.4704 29.9102 37.1826C29.0358 36.9059 28.2832 36.502 27.6523 35.9707C27.0104 35.4395 26.5179 34.8086 26.1748 34.0781C25.8428 33.3477 25.6768 32.5397 25.6768 31.6543C25.6768 30.9128 25.793 30.2155 26.0254 29.5625C26.2689 28.8984 26.6064 28.3229 27.0381 27.8359C27.4697 27.349 27.9733 26.9727 28.5488 26.707C29.1243 26.4303 29.7331 26.292 30.375 26.292C31.1719 26.292 31.8415 26.4912 32.3838 26.8896C32.9261 27.2881 33.2637 27.8359 33.3965 28.5332C32.2122 28.5332 31.2715 28.8486 30.5742 29.4795C30.2422 29.7783 29.9821 30.1436 29.7939 30.5752C29.6169 31.0068 29.5283 31.4827 29.5283 32.0029C29.5283 32.999 29.8161 33.7904 30.3916 34.377C30.9782 34.9525 31.764 35.2402 32.749 35.2402C33.3356 35.2402 33.8835 35.1351 34.3926 34.9248C34.9017 34.7035 35.3444 34.4046 35.7207 34.0283C36.097 33.652 36.3848 33.2038 36.584 32.6836C36.7943 32.1523 36.8994 31.5879 36.8994 30.9902C36.8994 29.8835 36.5231 28.7324 35.7705 27.5371C35.4717 27.0723 35.1396 26.6185 34.7744 26.1758C34.4202 25.722 33.9222 25.1243 33.2803 24.3828C32.7048 23.7188 32.2233 23.1432 31.8359 22.6562C31.4486 22.1693 31.0999 21.6712 30.79 21.1621C30.0374 19.9336 29.6611 18.7272 29.6611 17.543C29.6611 16.6576 29.8493 15.8385 30.2256 15.0859C30.6019 14.3223 31.1387 13.6582 31.8359 13.0938C32.5332 12.5293 33.3467 12.0921 34.2764 11.7822C35.2061 11.4723 36.2077 11.3174 37.2812 11.3174C39.1074 11.3174 40.5739 11.749 41.6807 12.6123C42.2119 13.0329 42.6159 13.5365 42.8926 14.123C43.1803 14.7096 43.3242 15.3626 43.3242 16.082C43.3242 17.0228 43.0863 17.792 42.6104 18.3896C42.389 18.6774 42.1123 18.8988 41.7803 19.0537C41.4593 19.2087 41.1162 19.2861 40.751 19.2861C39.8988 19.2861 39.207 18.932 38.6758 18.2236C39.1074 17.9137 39.445 17.5042 39.6885 16.9951C39.943 16.4749 40.0703 15.9215 40.0703 15.335C40.0703 14.6045 39.8545 14.029 39.4229 13.6084C38.9912 13.1768 38.3991 12.9609 37.6465 12.9609C37.1927 12.9609 36.7721 13.0439 36.3848 13.21C36.0085 13.376 35.6875 13.6139 35.4219 13.9238C35.1452 14.2337 34.9294 14.599 34.7744 15.0195C34.6305 15.4401 34.5586 15.8994 34.5586 16.3975C34.5586 17.1058 34.7246 17.7865 35.0566 18.4395C35.3887 19.0924 35.8646 19.7731 36.4844 20.4814C37.0378 21.1344 37.6354 21.7819 38.2773 22.4238C39.7715 23.9733 40.8285 25.484 41.4482 26.9561C41.8135 27.8304 41.9961 28.7933 41.9961 29.8447C41.9961 30.9515 41.7692 31.9808 41.3154 32.9326C40.8617 33.8734 40.2142 34.6924 39.373 35.3896C38.5319 36.098 37.5524 36.6458 36.4346 37.0332C35.3167 37.4206 34.1214 37.6143 32.8486 37.6143Z"
          fill="black"/>
</svg>
